G04 MADE WITH FRITZING*
G04 WWW.FRITZING.ORG*
G04 DOUBLE SIDED*
G04 HOLES PLATED*
G04 CONTOUR ON CENTER OF CONTOUR VECTOR*
%ASAXBY*%
%FSLAX23Y23*%
%MOIN*%
%OFA0B0*%
%SFA1.0B1.0*%
%ADD10C,0.078000*%
%ADD11C,0.085000*%
%ADD12R,0.043307X0.039370*%
%ADD13C,0.024000*%
%LNCOPPER1*%
G90*
G70*
G54D10*
X141Y2298D03*
X141Y2198D03*
X141Y2098D03*
X141Y1998D03*
X141Y1898D03*
X141Y1798D03*
X141Y1698D03*
X141Y1598D03*
X141Y1498D03*
X241Y1498D03*
X341Y1498D03*
X441Y1498D03*
X541Y1498D03*
X641Y1498D03*
X741Y1498D03*
X741Y1598D03*
X741Y1698D03*
X741Y1798D03*
X741Y1898D03*
X741Y1998D03*
X740Y2098D03*
X741Y2198D03*
X741Y2298D03*
G54D11*
X3249Y395D03*
X3249Y198D03*
X3741Y198D03*
X3741Y395D03*
X3249Y395D03*
X3249Y198D03*
X3741Y198D03*
X3741Y395D03*
X2549Y395D03*
X2549Y198D03*
X3041Y198D03*
X3041Y395D03*
X2549Y395D03*
X2549Y198D03*
X3041Y198D03*
X3041Y395D03*
X1849Y395D03*
X1849Y198D03*
X2341Y198D03*
X2341Y395D03*
X1849Y395D03*
X1849Y198D03*
X2341Y198D03*
X2341Y395D03*
X1149Y395D03*
X1149Y198D03*
X1641Y198D03*
X1641Y395D03*
X1149Y395D03*
X1149Y198D03*
X1641Y198D03*
X1641Y395D03*
X3249Y995D03*
X3249Y798D03*
X3741Y798D03*
X3741Y995D03*
X3249Y995D03*
X3249Y798D03*
X3741Y798D03*
X3741Y995D03*
X2549Y995D03*
X2549Y798D03*
X3041Y798D03*
X3041Y995D03*
X2549Y995D03*
X2549Y798D03*
X3041Y798D03*
X3041Y995D03*
X1849Y995D03*
X1849Y798D03*
X2341Y798D03*
X2341Y995D03*
X1849Y995D03*
X1849Y798D03*
X2341Y798D03*
X2341Y995D03*
X1149Y995D03*
X1149Y798D03*
X1641Y798D03*
X1641Y995D03*
X1149Y995D03*
X1149Y798D03*
X1641Y798D03*
X1641Y995D03*
X3250Y1595D03*
X3250Y1398D03*
X3742Y1398D03*
X3742Y1595D03*
X3250Y1595D03*
X3250Y1398D03*
X3742Y1398D03*
X3742Y1595D03*
X2549Y1595D03*
X2549Y1398D03*
X3041Y1398D03*
X3041Y1595D03*
X2549Y1595D03*
X2549Y1398D03*
X3041Y1398D03*
X3041Y1595D03*
X1849Y1595D03*
X1849Y1398D03*
X2341Y1398D03*
X2341Y1595D03*
X1849Y1595D03*
X1849Y1398D03*
X2341Y1398D03*
X2341Y1595D03*
X1149Y1595D03*
X1149Y1398D03*
X1641Y1398D03*
X1641Y1595D03*
X1149Y1595D03*
X1149Y1398D03*
X1641Y1398D03*
X1641Y1595D03*
X3249Y2195D03*
X3249Y1998D03*
X3741Y1998D03*
X3741Y2195D03*
X3249Y2195D03*
X3249Y1998D03*
X3741Y1998D03*
X3741Y2195D03*
X2549Y2195D03*
X2549Y1998D03*
X3041Y1998D03*
X3041Y2195D03*
X2549Y2195D03*
X2549Y1998D03*
X3041Y1998D03*
X3041Y2195D03*
X1849Y2195D03*
X1849Y1998D03*
X2341Y1998D03*
X2341Y2195D03*
X1849Y2195D03*
X1849Y1998D03*
X2341Y1998D03*
X2341Y2195D03*
X1149Y2195D03*
X1149Y1998D03*
X1641Y1998D03*
X1641Y2195D03*
X1149Y2195D03*
X1149Y1998D03*
X1641Y1998D03*
X1641Y2195D03*
G54D12*
X3141Y1098D03*
X3208Y1098D03*
X3141Y498D03*
X3208Y498D03*
X2441Y498D03*
X2508Y498D03*
X1741Y498D03*
X1808Y498D03*
X1041Y498D03*
X1108Y498D03*
X2441Y1098D03*
X2508Y1098D03*
X1741Y1098D03*
X1808Y1098D03*
X1041Y1098D03*
X1108Y1098D03*
X3141Y1698D03*
X3208Y1698D03*
X2441Y1698D03*
X2508Y1698D03*
X1741Y1698D03*
X1808Y1698D03*
X1041Y1698D03*
X1108Y1698D03*
X3141Y2298D03*
X3208Y2298D03*
X2441Y2298D03*
X2508Y2298D03*
X1741Y2298D03*
X1808Y2298D03*
X1041Y2298D03*
X1108Y2298D03*
G54D13*
X2741Y1699D02*
X2741Y1099D01*
D02*
X2741Y1099D02*
X2524Y1098D01*
D02*
X2524Y1698D02*
X2641Y1699D01*
D02*
X2641Y1699D02*
X2741Y1699D01*
D02*
X3443Y499D02*
X3443Y1098D01*
D02*
X3242Y599D02*
X3213Y513D01*
D02*
X2541Y599D02*
X3242Y599D01*
D02*
X2513Y513D02*
X2541Y599D01*
D02*
X3224Y498D02*
X3443Y499D01*
D02*
X3443Y1098D02*
X3224Y1098D01*
D02*
X3242Y1198D02*
X3213Y1113D01*
D02*
X2542Y1198D02*
X3242Y1198D01*
D02*
X1041Y2199D02*
X1041Y2284D01*
D02*
X1126Y2196D02*
X1041Y2199D01*
D02*
X3241Y2399D02*
X2542Y2399D01*
D02*
X3213Y2313D02*
X3241Y2399D01*
D02*
X3141Y2199D02*
X3226Y2196D01*
D02*
X3141Y2284D02*
X3141Y2199D01*
D02*
X2542Y2399D02*
X2513Y2313D01*
D02*
X2442Y2199D02*
X2441Y2284D01*
D02*
X2526Y2196D02*
X2442Y2199D01*
D02*
X1841Y2398D02*
X1813Y2313D01*
D02*
X2513Y2313D02*
X2542Y2398D01*
D02*
X2542Y2398D02*
X1841Y2398D01*
D02*
X1742Y2199D02*
X1741Y2284D01*
D02*
X1826Y2196D02*
X1742Y2199D01*
D02*
X1142Y2398D02*
X1113Y2313D01*
D02*
X1813Y2313D02*
X1841Y2398D01*
D02*
X1841Y2398D02*
X1142Y2398D01*
D02*
X1025Y2298D02*
X760Y2298D01*
D02*
X2441Y1599D02*
X2441Y1684D01*
D02*
X2526Y1596D02*
X2441Y1599D01*
D02*
X1742Y1599D02*
X1741Y1684D01*
D02*
X1826Y1596D02*
X1742Y1599D01*
D02*
X1041Y1599D02*
X1041Y1684D01*
D02*
X1126Y1596D02*
X1041Y1599D01*
D02*
X641Y2099D02*
X160Y2098D01*
D02*
X641Y2398D02*
X641Y2099D01*
D02*
X1142Y2398D02*
X641Y2398D01*
D02*
X3141Y1598D02*
X3141Y1684D01*
D02*
X3241Y1598D02*
X3141Y1598D01*
D02*
X3228Y1602D02*
X3241Y1598D01*
D02*
X1041Y998D02*
X1041Y1084D01*
D02*
X1741Y998D02*
X1741Y1084D01*
D02*
X1826Y996D02*
X1741Y998D01*
D02*
X1126Y996D02*
X1041Y998D01*
D02*
X2442Y998D02*
X2441Y1084D01*
D02*
X2526Y996D02*
X2442Y998D01*
D02*
X1041Y399D02*
X1041Y484D01*
D02*
X1126Y396D02*
X1041Y399D01*
D02*
X1741Y398D02*
X1741Y484D01*
D02*
X1826Y396D02*
X1741Y398D01*
D02*
X3141Y998D02*
X3141Y1084D01*
D02*
X3226Y996D02*
X3141Y998D01*
D02*
X3142Y398D02*
X3142Y499D01*
D02*
X3226Y396D02*
X3142Y398D01*
D02*
X3142Y499D02*
X3141Y498D01*
D02*
X2442Y399D02*
X2441Y484D01*
D02*
X2526Y396D02*
X2442Y399D01*
D02*
X1741Y2098D02*
X942Y2099D01*
D02*
X942Y2099D02*
X941Y2199D01*
D02*
X941Y2199D02*
X760Y2198D01*
D02*
X1741Y2284D02*
X1741Y2098D01*
D02*
X3443Y1797D02*
X3241Y1799D01*
D02*
X3443Y1098D02*
X3443Y1797D01*
D02*
X2542Y1798D02*
X2513Y1713D01*
D02*
X3242Y1798D02*
X2542Y1798D01*
D02*
X3213Y1713D02*
X3242Y1798D01*
D02*
X3241Y1799D02*
X3213Y1713D01*
D02*
X3441Y2399D02*
X3443Y1098D01*
D02*
X3241Y2399D02*
X3441Y2399D01*
D02*
X1840Y1799D02*
X1142Y1799D01*
D02*
X1142Y1799D02*
X1113Y1713D01*
D02*
X1813Y1713D02*
X1840Y1799D01*
D02*
X1142Y1198D02*
X1113Y1113D01*
D02*
X1841Y1198D02*
X1142Y1198D01*
D02*
X1841Y1198D02*
X2542Y1198D01*
D02*
X2542Y1198D02*
X2513Y1113D01*
D02*
X1813Y1113D02*
X1841Y1198D01*
D02*
X1813Y1113D02*
X1841Y1198D01*
D02*
X1842Y1798D02*
X1813Y1713D01*
D02*
X2542Y1798D02*
X1842Y1798D01*
D02*
X2513Y1713D02*
X2542Y1798D01*
D02*
X2541Y598D02*
X1841Y598D01*
D02*
X1841Y598D02*
X1813Y513D01*
D02*
X2513Y513D02*
X2541Y598D01*
D02*
X1841Y598D02*
X1142Y598D01*
D02*
X1142Y598D02*
X1113Y513D01*
D02*
X1813Y513D02*
X1841Y598D01*
D02*
X942Y1798D02*
X942Y1499D01*
D02*
X1040Y1798D02*
X1041Y1713D01*
D02*
X1742Y1499D02*
X1741Y1684D01*
D02*
X760Y1798D02*
X942Y1798D01*
D02*
X942Y1499D02*
X1742Y1499D01*
D02*
X760Y1898D02*
X1040Y1898D01*
D02*
X1040Y1898D02*
X1040Y1798D01*
D02*
X242Y298D02*
X241Y1479D01*
D02*
X1025Y498D02*
X341Y499D01*
D02*
X341Y499D02*
X341Y1479D01*
D02*
X741Y1099D02*
X741Y1479D01*
D02*
X642Y899D02*
X641Y1479D01*
D02*
X1741Y899D02*
X642Y899D01*
D02*
X1741Y1084D02*
X1741Y899D01*
D02*
X1025Y1098D02*
X741Y1099D01*
D02*
X1742Y298D02*
X242Y298D01*
D02*
X1741Y484D02*
X1742Y298D01*
G04 End of Copper1*
M02*