G04 MADE WITH FRITZING*
G04 WWW.FRITZING.ORG*
G04 DOUBLE SIDED*
G04 HOLES PLATED*
G04 CONTOUR ON CENTER OF CONTOUR VECTOR*
%ASAXBY*%
%FSLAX23Y23*%
%MOIN*%
%OFA0B0*%
%SFA1.0B1.0*%
%ADD10C,0.088000*%
%ADD11C,0.095000*%
%LNMASK0*%
G90*
G70*
G54D10*
X141Y2298D03*
X141Y2198D03*
X141Y2098D03*
X141Y1998D03*
X141Y1898D03*
X141Y1798D03*
X141Y1698D03*
X141Y1598D03*
X141Y1498D03*
X241Y1498D03*
X341Y1498D03*
X441Y1498D03*
X541Y1498D03*
X641Y1498D03*
X741Y1498D03*
X741Y1598D03*
X741Y1698D03*
X741Y1798D03*
X741Y1898D03*
X741Y1998D03*
X740Y2098D03*
X741Y2198D03*
X741Y2298D03*
G54D11*
X3249Y395D03*
X3249Y198D03*
X3741Y198D03*
X3741Y395D03*
X2549Y395D03*
X2549Y198D03*
X3041Y198D03*
X3041Y395D03*
X1849Y395D03*
X1849Y198D03*
X2341Y198D03*
X2341Y395D03*
X1149Y395D03*
X1149Y198D03*
X1641Y198D03*
X1641Y395D03*
X3249Y995D03*
X3249Y798D03*
X3741Y798D03*
X3741Y995D03*
X2549Y995D03*
X2549Y798D03*
X3041Y798D03*
X3041Y995D03*
X1849Y995D03*
X1849Y798D03*
X2341Y798D03*
X2341Y995D03*
X1149Y995D03*
X1149Y798D03*
X1641Y798D03*
X1641Y995D03*
X3250Y1595D03*
X3250Y1398D03*
X3742Y1398D03*
X3742Y1595D03*
X2549Y1595D03*
X2549Y1398D03*
X3041Y1398D03*
X3041Y1595D03*
X1849Y1595D03*
X1849Y1398D03*
X2341Y1398D03*
X2341Y1595D03*
X1149Y1595D03*
X1149Y1398D03*
X1641Y1398D03*
X1641Y1595D03*
X3249Y2195D03*
X3249Y1998D03*
X3741Y1998D03*
X3741Y2195D03*
X2549Y2195D03*
X2549Y1998D03*
X3041Y1998D03*
X3041Y2195D03*
X1849Y2195D03*
X1849Y1998D03*
X2341Y1998D03*
X2341Y2195D03*
X1149Y2195D03*
X1149Y1998D03*
X1641Y1998D03*
X1641Y2195D03*
G04 End of Mask0*
M02*