G04 MADE WITH FRITZING*
G04 WWW.FRITZING.ORG*
G04 DOUBLE SIDED*
G04 HOLES PLATED*
G04 CONTOUR ON CENTER OF CONTOUR VECTOR*
%ASAXBY*%
%FSLAX23Y23*%
%MOIN*%
%OFA0B0*%
%SFA1.0B1.0*%
%ADD10C,0.078000*%
%ADD11C,0.085000*%
%ADD12C,0.024000*%
%LNCOPPER0*%
G90*
G70*
G54D10*
X141Y2298D03*
X141Y2198D03*
X141Y2098D03*
X141Y1998D03*
X141Y1898D03*
X141Y1798D03*
X141Y1698D03*
X141Y1598D03*
X141Y1498D03*
X241Y1498D03*
X341Y1498D03*
X441Y1498D03*
X541Y1498D03*
X641Y1498D03*
X741Y1498D03*
X741Y1598D03*
X741Y1698D03*
X741Y1798D03*
X741Y1898D03*
X741Y1998D03*
X740Y2098D03*
X741Y2198D03*
X741Y2298D03*
G54D11*
X3249Y395D03*
X3249Y198D03*
X3741Y198D03*
X3741Y395D03*
X2549Y395D03*
X2549Y198D03*
X3041Y198D03*
X3041Y395D03*
X1849Y395D03*
X1849Y198D03*
X2341Y198D03*
X2341Y395D03*
X1149Y395D03*
X1149Y198D03*
X1641Y198D03*
X1641Y395D03*
X3249Y995D03*
X3249Y798D03*
X3741Y798D03*
X3741Y995D03*
X2549Y995D03*
X2549Y798D03*
X3041Y798D03*
X3041Y995D03*
X1849Y995D03*
X1849Y798D03*
X2341Y798D03*
X2341Y995D03*
X1149Y995D03*
X1149Y798D03*
X1641Y798D03*
X1641Y995D03*
X3250Y1595D03*
X3250Y1398D03*
X3742Y1398D03*
X3742Y1595D03*
X2549Y1595D03*
X2549Y1398D03*
X3041Y1398D03*
X3041Y1595D03*
X1849Y1595D03*
X1849Y1398D03*
X2341Y1398D03*
X2341Y1595D03*
X1149Y1595D03*
X1149Y1398D03*
X1641Y1398D03*
X1641Y1595D03*
X3249Y2195D03*
X3249Y1998D03*
X3741Y1998D03*
X3741Y2195D03*
X2549Y2195D03*
X2549Y1998D03*
X3041Y1998D03*
X3041Y2195D03*
X1849Y2195D03*
X1849Y1998D03*
X2341Y1998D03*
X2341Y2195D03*
X1149Y2195D03*
X1149Y1998D03*
X1641Y1998D03*
X1641Y2195D03*
G54D12*
X2341Y99D02*
X2341Y175D01*
D02*
X1641Y99D02*
X2341Y99D01*
D02*
X1641Y175D02*
X1641Y99D01*
D02*
X3043Y99D02*
X2341Y99D01*
D02*
X2341Y99D02*
X2341Y175D01*
D02*
X3042Y175D02*
X3043Y99D01*
D02*
X3841Y1399D02*
X3766Y1398D01*
D02*
X3841Y1999D02*
X3841Y1399D01*
D02*
X3765Y1998D02*
X3841Y1999D01*
D02*
X3841Y1999D02*
X3765Y1998D01*
D02*
X3841Y2498D02*
X3841Y2398D01*
D02*
X540Y2497D02*
X3841Y2498D01*
D02*
X540Y2200D02*
X540Y2497D01*
D02*
X3841Y2398D02*
X3841Y1999D01*
D02*
X160Y2199D02*
X540Y2200D01*
D02*
X3843Y1399D02*
X3766Y1398D01*
D02*
X3042Y1299D02*
X3843Y1299D01*
D02*
X3843Y1299D02*
X3843Y1399D01*
D02*
X3041Y1399D02*
X3042Y1299D01*
D02*
X3037Y1422D02*
X3041Y1399D01*
D02*
X3843Y899D02*
X3843Y798D01*
D02*
X3843Y798D02*
X3765Y798D01*
D02*
X3843Y997D02*
X3843Y899D01*
D02*
X3843Y1399D02*
X3843Y1098D01*
D02*
X3843Y1098D02*
X3843Y997D01*
D02*
X3766Y1398D02*
X3843Y1399D01*
D02*
X3842Y198D02*
X3765Y198D01*
D02*
X3842Y800D02*
X3842Y198D01*
D02*
X3765Y799D02*
X3842Y800D01*
D02*
X3741Y100D02*
X3741Y175D01*
D02*
X3041Y100D02*
X3741Y100D01*
D02*
X3041Y175D02*
X3041Y100D01*
D02*
X3740Y698D02*
X3741Y775D01*
D02*
X3042Y698D02*
X3740Y698D01*
D02*
X3042Y775D02*
X3042Y698D01*
D02*
X2341Y698D02*
X3042Y698D01*
D02*
X3042Y698D02*
X3042Y775D01*
D02*
X2341Y775D02*
X2341Y698D01*
D02*
X3843Y1997D02*
X3765Y1998D01*
D02*
X3843Y1899D02*
X3843Y1997D01*
D02*
X3042Y1899D02*
X3843Y1899D01*
D02*
X3042Y1975D02*
X3042Y1899D01*
D02*
X3042Y1899D02*
X3042Y1975D01*
D02*
X2342Y1899D02*
X3042Y1899D01*
D02*
X2342Y1975D02*
X2342Y1899D01*
D02*
X2342Y1899D02*
X2342Y1975D01*
D02*
X1643Y1899D02*
X2342Y1899D01*
D02*
X1642Y1975D02*
X1643Y1899D01*
D02*
X2343Y1299D02*
X3041Y1299D01*
D02*
X3041Y1299D02*
X3041Y1375D01*
D02*
X2342Y1375D02*
X2343Y1299D01*
D02*
X2343Y1299D02*
X2342Y1375D01*
D02*
X1641Y1299D02*
X2343Y1299D01*
D02*
X1641Y1375D02*
X1641Y1299D01*
D02*
X2341Y699D02*
X2341Y775D01*
D02*
X1641Y699D02*
X2341Y699D01*
D02*
X1641Y775D02*
X1641Y699D01*
D02*
X942Y2099D02*
X1543Y2098D01*
D02*
X3240Y2099D02*
X3247Y2172D01*
D02*
X1543Y2098D02*
X3240Y2099D01*
D02*
X942Y1999D02*
X942Y2099D01*
D02*
X760Y1998D02*
X942Y1999D01*
D02*
X842Y2099D02*
X759Y2099D01*
D02*
X842Y2398D02*
X842Y2099D01*
D02*
X2640Y2399D02*
X842Y2398D01*
D02*
X2559Y2217D02*
X2640Y2399D01*
D02*
X941Y1799D02*
X941Y1699D01*
D02*
X941Y1699D02*
X741Y1699D01*
D02*
X741Y1699D02*
X726Y1710D01*
D02*
X1141Y1799D02*
X941Y1799D01*
D02*
X2642Y1799D02*
X1141Y1799D01*
D02*
X2559Y1617D02*
X2642Y1799D01*
D02*
X842Y1499D02*
X842Y1598D01*
D02*
X842Y1598D02*
X760Y1598D01*
D02*
X1042Y1498D02*
X842Y1499D01*
D02*
X3240Y1498D02*
X1042Y1498D01*
D02*
X3248Y1571D02*
X3240Y1498D01*
D02*
X43Y1599D02*
X122Y1599D01*
D02*
X43Y298D02*
X43Y1599D01*
D02*
X3240Y298D02*
X43Y298D01*
D02*
X3247Y372D02*
X3240Y298D01*
D02*
X143Y598D02*
X2642Y598D01*
D02*
X2642Y598D02*
X2559Y417D01*
D02*
X141Y1479D02*
X143Y598D01*
D02*
X541Y1199D02*
X2642Y1198D01*
D02*
X2642Y1198D02*
X2559Y1017D01*
D02*
X541Y1479D02*
X541Y1199D01*
D02*
X3241Y898D02*
X3247Y972D01*
D02*
X440Y898D02*
X3241Y898D01*
D02*
X441Y1479D02*
X440Y898D01*
G04 End of Copper0*
M02*