; NON-PLATED HOLES START AT T1
; THROUGH (PLATED) HOLES START AT T100
M48
INCH
T100C0.047244
T101C0.038000
%
T100
X016414Y013984
X030414Y001984
X037414Y009952
X018492Y019984
X023414Y013984
X018492Y015952
X018492Y007984
X018492Y021952
X032500Y013979
X030414Y009952
X032492Y007984
X030414Y007984
X011492Y015952
X016414Y003952
X023414Y009952
X032492Y021952
X037414Y021952
X030414Y015952
X032492Y009952
X018492Y013984
X030414Y021952
X037414Y019984
X016414Y015952
X023414Y021952
X032492Y019984
X023414Y015952
X018492Y001984
X037421Y015947
X018492Y003952
X032500Y015947
X011492Y001984
X025492Y015952
X023414Y007984
X011492Y003952
X011492Y009952
X025492Y021952
X037414Y003952
X023414Y001984
X032492Y003952
X016414Y021952
X016414Y009952
X016414Y007984
X011492Y021952
X025492Y013984
X011492Y019984
X025492Y001984
X025492Y003952
X037414Y001984
X011492Y007984
X023414Y003952
X030414Y013984
X025492Y009952
X030414Y003952
X016414Y001984
X023414Y019984
X025492Y019984
X018492Y009952
X032492Y001984
X025492Y007984
X037414Y007984
X011492Y013984
X016414Y019984
X030414Y019984
X037421Y013979
T101
X002414Y014984
X001414Y022984
X007414Y017984
X007414Y015984
X007404Y020984
X007414Y016984
X007414Y021984
X007414Y014984
X005414Y014984
X001414Y014984
X007414Y019984
X007414Y018984
X001414Y021984
X001414Y015984
X001414Y020984
X007414Y022984
X001414Y016984
X004414Y014984
X006414Y014984
X003414Y014984
X001414Y019984
X001414Y017984
X001414Y018984
T00
M30
