G04 MADE WITH FRITZING*
G04 WWW.FRITZING.ORG*
G04 DOUBLE SIDED*
G04 HOLES PLATED*
G04 CONTOUR ON CENTER OF CONTOUR VECTOR*
%ASAXBY*%
%FSLAX23Y23*%
%MOIN*%
%OFA0B0*%
%SFA1.0B1.0*%
%ADD10C,0.078000*%
%ADD11C,0.085000*%
%ADD12C,0.064000*%
%ADD13C,0.124267*%
%ADD14C,0.039370*%
%ADD15C,0.024000*%
%LNCOPPER0*%
G90*
G70*
G54D10*
X296Y2329D03*
X296Y2229D03*
X296Y2129D03*
X296Y2029D03*
X296Y1929D03*
X296Y1829D03*
X296Y1729D03*
X296Y1629D03*
X296Y1529D03*
X396Y1529D03*
X496Y1529D03*
X596Y1529D03*
X696Y1529D03*
X796Y1529D03*
X896Y1529D03*
X896Y1629D03*
X896Y1729D03*
X896Y1829D03*
X896Y1929D03*
X896Y2029D03*
X895Y2129D03*
X896Y2229D03*
X896Y2329D03*
G54D11*
X3303Y426D03*
X3303Y229D03*
X3796Y229D03*
X3796Y426D03*
X2603Y426D03*
X2603Y229D03*
X3096Y229D03*
X3096Y426D03*
X1903Y426D03*
X1903Y229D03*
X2396Y229D03*
X2396Y426D03*
X1203Y426D03*
X1203Y229D03*
X1696Y229D03*
X1696Y426D03*
X3303Y1026D03*
X3303Y829D03*
X3796Y829D03*
X3796Y1026D03*
X2603Y1026D03*
X2603Y829D03*
X3096Y829D03*
X3096Y1026D03*
X1903Y1026D03*
X1903Y829D03*
X2396Y829D03*
X2396Y1026D03*
X1203Y1026D03*
X1203Y829D03*
X1696Y829D03*
X1696Y1026D03*
X3304Y1625D03*
X3304Y1428D03*
X3796Y1428D03*
X3796Y1625D03*
X2603Y1626D03*
X2603Y1429D03*
X3096Y1429D03*
X3096Y1626D03*
X1903Y1626D03*
X1903Y1429D03*
X2396Y1429D03*
X2396Y1626D03*
X1203Y1626D03*
X1203Y1429D03*
X1696Y1429D03*
X1696Y1626D03*
X3303Y2226D03*
X3303Y2029D03*
X3796Y2029D03*
X3796Y2226D03*
X2603Y2226D03*
X2603Y2029D03*
X3096Y2029D03*
X3096Y2226D03*
X1903Y2226D03*
X1903Y2029D03*
X2396Y2029D03*
X2396Y2226D03*
X1203Y2226D03*
X1203Y2029D03*
X1696Y2029D03*
X1696Y2226D03*
G54D12*
X596Y329D03*
X496Y329D03*
X396Y329D03*
G54D13*
X739Y624D03*
X249Y625D03*
G54D12*
X396Y900D03*
X596Y900D03*
G54D14*
X596Y2129D03*
X796Y1029D03*
X996Y729D03*
X896Y529D03*
G54D15*
X2395Y130D02*
X2395Y205D01*
D02*
X1695Y130D02*
X2395Y130D01*
D02*
X1696Y205D02*
X1695Y130D01*
D02*
X3097Y130D02*
X2395Y130D01*
D02*
X2395Y130D02*
X2395Y205D01*
D02*
X3096Y205D02*
X3097Y130D01*
D02*
X3896Y1429D02*
X3820Y1429D01*
D02*
X3896Y2029D02*
X3896Y1429D01*
D02*
X3819Y2029D02*
X3896Y2029D01*
D02*
X3896Y2029D02*
X3819Y2029D01*
D02*
X3896Y2529D02*
X3896Y2428D01*
D02*
X594Y2527D02*
X3896Y2529D01*
D02*
X594Y2231D02*
X594Y2527D01*
D02*
X3896Y2428D02*
X3896Y2029D01*
D02*
X315Y2229D02*
X594Y2231D01*
D02*
X3897Y1429D02*
X3820Y1429D01*
D02*
X3096Y1330D02*
X3897Y1330D01*
D02*
X3897Y1330D02*
X3897Y1429D01*
D02*
X3095Y1429D02*
X3096Y1330D01*
D02*
X3091Y1452D02*
X3095Y1429D01*
D02*
X3897Y929D02*
X3897Y828D01*
D02*
X3897Y828D02*
X3819Y829D01*
D02*
X3897Y1028D02*
X3897Y929D01*
D02*
X3897Y1429D02*
X3897Y1129D01*
D02*
X3897Y1129D02*
X3897Y1028D01*
D02*
X3820Y1429D02*
X3897Y1429D01*
D02*
X3896Y228D02*
X3819Y229D01*
D02*
X3896Y830D02*
X3896Y228D01*
D02*
X3819Y829D02*
X3896Y830D01*
D02*
X3795Y130D02*
X3796Y205D01*
D02*
X3095Y130D02*
X3795Y130D01*
D02*
X3096Y205D02*
X3095Y130D01*
D02*
X3794Y728D02*
X3795Y805D01*
D02*
X3096Y728D02*
X3794Y728D01*
D02*
X3096Y805D02*
X3096Y728D01*
D02*
X2395Y728D02*
X3096Y728D01*
D02*
X3096Y728D02*
X3096Y805D01*
D02*
X2395Y805D02*
X2395Y728D01*
D02*
X3897Y2028D02*
X3819Y2029D01*
D02*
X3897Y1929D02*
X3897Y2028D01*
D02*
X3096Y1929D02*
X3897Y1929D01*
D02*
X3096Y2005D02*
X3096Y1929D01*
D02*
X3096Y1929D02*
X3096Y2005D01*
D02*
X2396Y1929D02*
X3096Y1929D01*
D02*
X2396Y2005D02*
X2396Y1929D01*
D02*
X2396Y1929D02*
X2396Y2005D01*
D02*
X1697Y1929D02*
X2396Y1929D01*
D02*
X1696Y2005D02*
X1697Y1929D01*
D02*
X2397Y1330D02*
X3095Y1330D01*
D02*
X3095Y1330D02*
X3096Y1405D01*
D02*
X2396Y1405D02*
X2397Y1330D01*
D02*
X2397Y1330D02*
X2396Y1405D01*
D02*
X1695Y1330D02*
X2397Y1330D01*
D02*
X1696Y1405D02*
X1695Y1330D01*
D02*
X2395Y729D02*
X2396Y805D01*
D02*
X1695Y729D02*
X2395Y729D01*
D02*
X1696Y805D02*
X1695Y729D01*
D02*
X996Y2130D02*
X1597Y2129D01*
D02*
X3294Y2129D02*
X3301Y2202D01*
D02*
X1597Y2129D02*
X3294Y2129D01*
D02*
X996Y2029D02*
X996Y2130D01*
D02*
X915Y2029D02*
X996Y2029D01*
D02*
X896Y2130D02*
X912Y2137D01*
D02*
X796Y2429D02*
X796Y2129D01*
D02*
X796Y2129D02*
X896Y2130D01*
D02*
X896Y2428D02*
X796Y2429D01*
D02*
X2694Y2430D02*
X896Y2428D01*
D02*
X2613Y2247D02*
X2694Y2430D01*
D02*
X995Y1830D02*
X995Y1730D01*
D02*
X995Y1730D02*
X895Y1728D01*
D02*
X895Y1728D02*
X881Y1716D01*
D02*
X1195Y1830D02*
X995Y1830D01*
D02*
X2696Y1830D02*
X1195Y1830D01*
D02*
X2613Y1647D02*
X2696Y1830D01*
D02*
X896Y1629D02*
X896Y1629D01*
D02*
X896Y1629D02*
X914Y1627D01*
D02*
X996Y1629D02*
X896Y1629D01*
D02*
X995Y1528D02*
X996Y1629D01*
D02*
X1096Y1529D02*
X995Y1528D01*
D02*
X3295Y1529D02*
X1096Y1529D01*
D02*
X3302Y1602D02*
X3295Y1529D01*
D02*
X896Y1130D02*
X896Y829D01*
D02*
X896Y829D02*
X1095Y830D01*
D02*
X1095Y629D02*
X2696Y629D01*
D02*
X595Y1129D02*
X896Y1130D01*
D02*
X295Y1128D02*
X595Y1129D01*
D02*
X1095Y830D02*
X1095Y629D01*
D02*
X2695Y429D02*
X2627Y427D01*
D02*
X2696Y629D02*
X2695Y429D01*
D02*
X297Y1328D02*
X295Y1128D01*
D02*
X296Y1510D02*
X297Y1328D01*
D02*
X1095Y1228D02*
X2696Y1229D01*
D02*
X1095Y1329D02*
X1095Y1228D01*
D02*
X696Y1329D02*
X1095Y1329D01*
D02*
X2696Y1229D02*
X2613Y1047D01*
D02*
X696Y1510D02*
X696Y1329D01*
D02*
X3296Y929D02*
X3302Y1002D01*
D02*
X996Y1228D02*
X996Y930D01*
D02*
X595Y1228D02*
X996Y1228D01*
D02*
X996Y930D02*
X3296Y929D01*
D02*
X595Y1510D02*
X595Y1228D01*
D02*
X495Y528D02*
X596Y530D01*
D02*
X596Y530D02*
X596Y880D01*
D02*
X496Y329D02*
X495Y528D01*
D02*
X514Y322D02*
X496Y329D01*
D02*
X596Y229D02*
X96Y229D01*
D02*
X96Y229D02*
X95Y328D01*
D02*
X596Y228D02*
X596Y229D01*
D02*
X96Y1930D02*
X95Y1928D01*
D02*
X95Y328D02*
X96Y1930D01*
D02*
X596Y309D02*
X596Y228D01*
D02*
X95Y1928D02*
X277Y1929D01*
D02*
X195Y1830D02*
X277Y1829D01*
D02*
X196Y829D02*
X195Y1830D01*
D02*
X396Y829D02*
X196Y829D01*
D02*
X396Y349D02*
X396Y829D01*
D02*
X588Y2129D02*
X315Y2129D01*
D02*
X796Y729D02*
X896Y729D01*
D02*
X795Y929D02*
X796Y729D01*
D02*
X896Y729D02*
X988Y729D01*
D02*
X796Y1021D02*
X795Y929D01*
D02*
X996Y329D02*
X1695Y329D01*
D02*
X903Y529D02*
X996Y529D01*
D02*
X996Y529D02*
X996Y329D01*
D02*
X1695Y329D02*
X1695Y253D01*
G04 End of Copper0*
M02*