G04 MADE WITH FRITZING*
G04 WWW.FRITZING.ORG*
G04 DOUBLE SIDED*
G04 HOLES PLATED*
G04 CONTOUR ON CENTER OF CONTOUR VECTOR*
%ASAXBY*%
%FSLAX23Y23*%
%MOIN*%
%OFA0B0*%
%SFA1.0B1.0*%
%ADD10C,0.085000*%
%ADD11C,0.124267*%
%ADD12R,0.043307X0.039370*%
%ADD13R,0.039370X0.043307*%
%LNPASTEMASK1*%
G90*
G70*
G54D10*
X3303Y229D03*
X3796Y426D03*
X3303Y229D03*
X3796Y426D03*
X2603Y229D03*
X3096Y426D03*
X2603Y229D03*
X3096Y426D03*
X1903Y229D03*
X2396Y426D03*
X1903Y229D03*
X2396Y426D03*
X1203Y229D03*
X1696Y426D03*
X1203Y229D03*
X1696Y426D03*
X3303Y829D03*
X3796Y1026D03*
X3303Y829D03*
X3796Y1026D03*
X2603Y829D03*
X3096Y1026D03*
X2603Y829D03*
X3096Y1026D03*
X1903Y829D03*
X2396Y1026D03*
X1903Y829D03*
X2396Y1026D03*
X1203Y829D03*
X1696Y1026D03*
X1203Y829D03*
X1696Y1026D03*
X3304Y1428D03*
X3796Y1625D03*
X3304Y1428D03*
X3796Y1625D03*
X2603Y1429D03*
X3096Y1626D03*
X2603Y1429D03*
X3096Y1626D03*
X1903Y1429D03*
X2396Y1626D03*
X1903Y1429D03*
X2396Y1626D03*
X1203Y1429D03*
X1696Y1626D03*
X1203Y1429D03*
X1696Y1626D03*
X3303Y2029D03*
X3796Y2226D03*
X3303Y2029D03*
X3796Y2226D03*
X2603Y2029D03*
X3096Y2226D03*
X2603Y2029D03*
X3096Y2226D03*
X1903Y2029D03*
X2396Y2226D03*
X1903Y2029D03*
X2396Y2226D03*
X1203Y2029D03*
X1696Y2226D03*
X1203Y2029D03*
X1696Y2226D03*
G54D11*
X739Y624D03*
X249Y625D03*
G54D12*
X3196Y1129D03*
X3262Y1129D03*
X3196Y529D03*
X3262Y529D03*
X2496Y529D03*
X2562Y529D03*
X1796Y529D03*
X1862Y529D03*
X1096Y529D03*
X1162Y529D03*
X2496Y1129D03*
X2562Y1129D03*
X1796Y1129D03*
X1862Y1129D03*
X1096Y1129D03*
X1162Y1129D03*
X3196Y1729D03*
X3262Y1729D03*
X2496Y1729D03*
X2562Y1729D03*
X1796Y1729D03*
X1862Y1729D03*
X1096Y1729D03*
X1162Y1729D03*
X3196Y2329D03*
X3262Y2329D03*
G54D13*
X896Y396D03*
X896Y329D03*
X796Y396D03*
X796Y329D03*
G54D12*
X2496Y2329D03*
X2562Y2329D03*
X1796Y2329D03*
X1862Y2329D03*
X1096Y2329D03*
X1162Y2329D03*
G04 End of PasteMask1*
M02*