; NON-PLATED HOLES START AT T1
; THROUGH (PLATED) HOLES START AT T100
M48
INCH
T100C0.038000
T101C0.040000
T102C0.090933
T103C0.015748
T104C0.047244
%
T100
X002955Y021289
X002955Y015289
X008955Y019289
X002955Y016289
X002955Y018289
X008955Y020289
X006955Y015289
X008955Y015289
X002955Y022289
X002955Y020289
X007955Y015289
X008955Y023289
X003955Y015289
X002955Y019289
X002955Y023289
X008955Y018289
X002955Y017289
X008955Y022289
X004955Y015289
X008955Y017289
X008945Y021289
X008955Y016289
X005955Y015289
T101
X004955Y003289
X003955Y008997
X005955Y003289
X003955Y003289
X005955Y008997
T102
X002491Y006253
X007393Y006235
T103
X007955Y010289
X009955Y007289
X005955Y021289
X008955Y005289
T104
X012034Y022257
X012034Y010257
X033034Y002289
X012034Y014289
X033034Y022257
X037963Y014284
X019034Y008289
X026034Y010257
X033034Y008289
X012034Y002289
X019034Y014289
X023955Y002289
X037955Y002289
X033041Y014284
X019034Y022257
X037963Y016252
X030955Y002289
X016955Y004257
X026034Y020289
X026034Y014289
X019034Y002289
X026034Y004257
X012034Y008289
X016955Y016257
X037955Y022257
X026034Y008289
X016955Y014289
X019034Y010257
X037955Y020289
X030955Y020289
X030955Y016257
X033034Y020289
X023955Y020289
X030955Y008289
X037955Y004257
X012034Y016257
X033034Y004257
X012034Y020289
X033034Y010257
X023955Y016257
X033041Y016252
X023955Y022257
X026034Y022257
X012034Y004257
X030955Y004257
X023955Y004257
X016955Y022257
X023955Y010257
X016955Y002289
X016955Y020289
X023955Y014289
X037955Y010257
X019034Y016257
X019034Y020289
X023955Y008289
X026034Y002289
X030955Y022257
X037955Y008289
X030955Y010257
X016955Y010257
X030955Y014289
X016955Y008289
X026034Y016257
X019034Y004257
T00
M30
